<?xml version="1.0" encoding="UTF-8"?>
<svg id="Layer_1" data-name="Layer 1" xmlns="http://www.w3.org/2000/svg" viewBox="0 0 1958.76 1938">
  <path d="M1818.66,1096.04l-44.98,140.11c-38.47,102.98-136.71,171.18-246.64,171.18H759.9c-120.58,0-225.78-82.11-255.22-199.15l-20.27-112.15H1818.66Z" style="fill: #571f4f;"/>
  <path d="M709.25,457.63c-7.52,0-15.15-1.91-22.14-5.95l-106.97-61.7c-21.23-12.25-28.52-39.39-16.27-60.63,12.23-21.23,39.37-28.53,60.63-16.27l106.97,61.7c21.23,12.25,28.52,39.39,16.27,60.63-8.21,14.25-23.14,22.21-38.49,22.21Z" style="fill: #571f4f;"/>
  <g>
    <path d="M1130.52,213.2c-24.51,0-44.39-19.87-44.39-44.39V44.39c0-24.51,19.87-44.39,44.39-44.39s44.39,19.87,44.39,44.39v124.42c0,24.51-19.87,44.39-44.39,44.39Z" style="fill: #571f4f;"/>
    <path d="M887.03,278.75c-15.36,0-30.29-7.98-38.51-22.24l-61.7-107.12c-12.24-21.25-4.93-48.38,16.31-60.62,21.26-12.24,48.39-4.93,60.62,16.31l61.7,107.12c12.24,21.25,4.93,48.38-16.31,60.62-6.99,4.02-14.6,5.93-22.11,5.93Z" style="fill: #571f4f;"/>
    <path d="M1373.86,278.75c-7.53,0-15.16-1.92-22.15-5.95-21.23-12.26-28.51-39.41-16.24-60.63l61.85-107.12c12.27-21.21,39.39-28.49,60.63-16.25,21.23,12.26,28.51,39.41,16.24,60.63l-61.85,107.12c-8.22,14.24-23.13,22.2-38.48,22.2Z" style="fill: #571f4f;"/>
  </g>
  <path d="M1551.79,457.63c-15.34,0-30.27-7.97-38.49-22.21-12.25-21.24-4.97-48.38,16.27-60.63l106.96-61.7c21.25-12.24,48.39-4.96,60.63,16.27,12.25,21.24,4.97,48.38-16.27,60.63l-106.96,61.7c-6.99,4.03-14.61,5.95-22.14,5.95Z" style="fill: #571f4f;"/>
  <g>
    <path d="M1527.04,1451.73H759.89c-141.14,0-263.79-95.69-298.26-232.71-.25-.97-.46-1.95-.64-2.93l-74.56-412.35c-13.63-60.26-68.13-103.91-129.88-103.91H44.39c-24.51,0-44.39-19.87-44.39-44.39s19.87-44.39,44.39-44.39h212.17c103.37,0,194.52,73.33,216.75,174.37,.12,.54,.22,1.09,.33,1.64l74.43,411.69c25.01,96.76,111.9,164.21,211.82,164.21h767.15c90.51,0,172.65-56.79,204.71-141.41l62.49-194.65,73.31-301.75c.4-1.68,.91-3.32,1.5-4.93,2.38-6.42-.12-11.47-1.81-13.91-1.69-2.42-5.53-6.48-12.35-6.48h-722.46c-24.51,0-44.39-19.87-44.39-44.39s19.87-44.39,44.39-44.39h722.46c33.94,0,65.8,16.65,85.2,44.54,18.87,27.11,23.72,61.54,13.19,92.67l-73.17,301.15c-.25,1.03-.53,2.07-.87,3.08l-63.31,197.22c-.22,.66-.43,1.31-.68,1.97-44.7,119.65-160.54,200.04-288.22,200.04Z" style="fill: #f1eef5;"/>
    <path d="M1325.02,1009.33h-192.61c-98.03,0-189.18-39.17-256.68-110.3-67.47-71.09-101.78-164.32-96.64-262.51,9.34-178.14,156.19-324.99,334.33-334.33,98.29-5.05,191.43,29.18,262.5,96.63,71.13,67.5,110.3,158.65,110.3,256.69,0,24.51-19.87,44.39-44.39,44.39s-44.39-19.87-44.39-44.39c0-73.44-29.35-141.73-82.63-192.3-53.24-50.53-123.07-76.37-196.75-72.37-133.38,6.99-243.34,116.94-250.32,250.32-3.87,73.62,21.84,143.5,72.37,196.75,50.57,53.29,118.85,82.64,192.29,82.64h192.61c24.52,0,44.39,19.87,44.39,44.39s-19.87,44.39-44.39,44.39Z" style="fill: #f1eef5;"/>
    <path d="M775.03,1938c-74.06,0-134.32-60.26-134.32-134.33s60.26-134.32,134.32-134.32,134.33,60.26,134.33,134.32-60.26,134.33-134.33,134.33Zm0-179.88c-25.12,0-45.55,20.43-45.55,45.55s20.43,45.56,45.55,45.56,45.56-20.44,45.56-45.56-20.44-45.55-45.56-45.55Z" style="fill: #f1eef5;"/>
    <path d="M1461.81,1938c-74.06,0-134.31-60.26-134.31-134.33s60.25-134.32,134.31-134.32,134.33,60.26,134.33,134.32-60.27,134.33-134.33,134.33Zm0-179.88c-25.11,0-45.54,20.43-45.54,45.55s20.43,45.56,45.54,45.56,45.56-20.44,45.56-45.56-20.43-45.55-45.56-45.55Z" style="fill: #f1eef5;"/>
    <path d="M1633.85,1758.12H709.29c-108.94,0-197.58-88.64-197.58-197.59s88.64-197.58,197.58-197.58c24.51,0,44.39,19.87,44.39,44.39s-19.87,44.39-44.39,44.39c-60,0-108.81,48.81-108.81,108.81s48.81,108.81,108.81,108.81h924.56c24.52,0,44.39,19.87,44.39,44.39s-19.87,44.39-44.39,44.39Z" style="fill: #f1eef5;"/>
  </g>
</svg>